<svg width="640" height="720" viewBox="0 0 640 720" fill="none" xmlns="http://www.w3.org/2000/svg">
  <defs>
    <linearGradient id="bg" x1="80" y1="40" x2="540" y2="660" gradientUnits="userSpaceOnUse">
      <stop stop-color="#22D3EE" stop-opacity="0.45"/>
      <stop offset="0.45" stop-color="#3B82F6" stop-opacity="0.3"/>
      <stop offset="1" stop-color="#0F172A" stop-opacity="0.8"/>
    </linearGradient>
  </defs>
  <rect x="24" y="24" width="592" height="672" rx="56" fill="url(#bg)"/>
  <rect x="72" y="78" width="496" height="564" rx="44" fill="#020617" fill-opacity="0.82" stroke="#334155"/>
  <circle cx="320" cy="274" r="108" fill="#0F172A" stroke="#22D3EE" stroke-opacity="0.6" stroke-width="6"/>
  <path d="M320 188C285.2 188 257 216.2 257 251V302H383V251C383 216.2 354.8 188 320 188Z" fill="#22D3EE" fill-opacity="0.8"/>
  <rect x="212" y="352" width="216" height="178" rx="84" fill="#1E293B" stroke="#475569"/>
  <rect x="116" y="566" width="148" height="18" rx="9" fill="#22D3EE" fill-opacity="0.8"/>
  <rect x="282" y="566" width="244" height="18" rx="9" fill="#334155"/>
  <rect x="116" y="606" width="220" height="18" rx="9" fill="#334155"/>
  <rect x="354" y="606" width="172" height="18" rx="9" fill="#22D3EE" fill-opacity="0.45"/>
</svg>
